<?xml version="1.0" encoding="UTF-8"?>
<svg width="110px" height="36px" viewBox="0 0 110 36" version="1.1" xmlns="http://www.w3.org/2000/svg" xmlns:xlink="http://www.w3.org/1999/xlink">
    <!-- Generator: Sketch 64 (93537) - https://sketch.com -->
    <title>Artboard 544</title>
    <desc>Created with Sketch.</desc>
    <g id="Main-page" stroke="none" stroke-width="1" fill="none" fill-rule="evenodd">
        <g id="Artboard-544">
            <path d="M28.6098655,25.7908072 L23.529148,20.6780269 C25.0656951,17.1141256 26.1804933,13.8511211 26.1804933,11.858296 C26.1804933,5.39359246 20.9398156,0.152914798 14.4751121,0.152914798 C8.0104086,0.152914798 2.76973094,5.39359246 2.76973094,11.858296 C2.76973094,13.8511211 3.88206278,17.1141256 5.42107623,20.6780269 L0.347757848,25.7908072 C0.166354711,25.9730735 0.11248784,26.2466098 0.211239878,26.4840464 C0.309991916,26.721483 0.541949326,26.8761425 0.799103139,26.876009 L4.232287,26.876009 L4.232287,32.9482063 C4.232287,34.3988825 5.40829241,35.5748879 6.85896861,35.5748879 L22.1504484,35.5748879 C22.8500893,35.5748879 23.5208258,35.2957955 24.0139235,34.7994568 C24.5070212,34.3031181 24.7817286,33.6305675 24.77713,32.9309417 L24.7154709,26.8834081 L28.1486547,26.8834081 C28.4058085,26.8835416 28.6377659,26.7288821 28.736518,26.4914455 C28.83527,26.254009 28.7814031,25.9804726 28.6,25.7982063 M7.113001,11.858296 C7.11178629,8.54870118 9.31918122,5.64507652 12.5085122,4.76100259 C15.6978433,3.87692866 19.0851077,5.22972888 20.7879602,8.06763524 C22.4908127,10.9055416 22.0906573,14.5309387 19.8098655,16.929148 L15.3876682,12.4724215 C15.1467037,12.2284079 14.8180502,12.0910632 14.4751121,12.0910632 C14.132174,12.0910632 13.8035205,12.2284079 13.5625561,12.4724215 L9.14035874,16.929148 C7.83729409,15.5626799 7.11116429,13.7464721 7.113001,11.858296" id="Shape" fill="#F6F6F6" fill-rule="nonzero"></path>
            <path d="M13.5650224,12.4724215 L9.14035874,16.929148 C10.5293961,18.3917583 12.4580217,19.2199209 14.4751121,19.2199209 C16.4922025,19.2199209 18.4208281,18.3917583 19.8098655,16.929148 L15.3876682,12.4724215 C15.1467037,12.2284079 14.8180502,12.0910632 14.4751121,12.0910632 C14.132174,12.0910632 13.8035205,12.2284079 13.5625561,12.4724215" id="Path" fill="#6ABD45" fill-rule="nonzero"></path>
            <path d="M28.6098655,25.7908072 L23.529148,20.6780269 C21.4795964,25.420852 18.6753363,30.6914798 16.7343049,34.1961883 C16.278348,35.0164673 15.4135972,35.525156 14.4751121,35.525156 C13.5366271,35.525156 12.6718762,35.0164673 12.2159193,34.1961883 C10.2724215,30.6914798 7.46816143,25.420852 5.42600897,20.6780269 L0.347757848,25.7908072 C0.166354711,25.9730735 0.11248784,26.2466098 0.211239878,26.4840464 C0.309991916,26.721483 0.541949326,26.8761425 0.799103139,26.876009 L4.232287,26.876009 L4.232287,32.9482063 C4.232287,34.3988825 5.40829241,35.5748879 6.85896861,35.5748879 L22.1504484,35.5748879 C22.8500893,35.5748879 23.5208258,35.2957955 24.0139235,34.7994568 C24.5070212,34.3031181 24.7817286,33.6305675 24.77713,32.9309417 L24.7154709,26.8834081 L28.1486547,26.8834081 C28.4058085,26.8835416 28.6377659,26.7288821 28.736518,26.4914455 C28.83527,26.254009 28.7814031,25.9804726 28.6,25.7982063" id="Path" fill="#6ABD45" fill-rule="nonzero"></path>
            <path d="M7.11300448,11.858296 C7.11178629,8.54870118 9.31918122,5.64507652 12.5085122,4.76100259 C15.6978433,3.87692866 19.0851077,5.22972888 20.7879602,8.06763524 C22.4908127,10.9055416 22.0906573,14.5309387 19.8098655,16.929148 L23.529148,20.6780269 C25.0656951,17.1141256 26.1804933,13.8511211 26.1804933,11.858296 C26.1804933,5.39359246 20.9398156,0.152914798 14.4751121,0.152914798 C8.0104086,0.152914798 2.76973094,5.39359246 2.76973094,11.858296 C2.76973094,13.8511211 3.88206278,17.1141256 5.42107623,20.6780269 L9.14035874,16.929148 C7.83729409,15.5626799 7.11116429,13.7464721 7.11300448,11.858296" id="Path" fill="#2C9942" fill-rule="nonzero"></path>
            <path d="M16.7343049,34.1961883 C18.6753363,30.6914798 21.4795964,25.420852 23.529148,20.6780269 L19.8098655,16.929148 C18.4208281,18.3917583 16.4922025,19.2199209 14.4751121,19.2199209 C12.4580217,19.2199209 10.5293961,18.3917583 9.14035874,16.929148 L5.42600897,20.6780269 C7.47309417,25.420852 10.2773543,30.6914798 12.220852,34.1961883 C12.6768089,35.0164673 13.5415598,35.525156 14.4800448,35.525156 C15.4185299,35.525156 16.2832808,35.0164673 16.7392377,34.1961883" id="Path" fill="#6ABD45" fill-rule="nonzero"></path>
            <polygon id="Path" points="5.42107623 16.929148 5.42107623 20.6780269 9.14035874 16.929148"></polygon>
            <path d="M14.4751121,19.220408 C16.4926334,19.2220243 18.4219303,18.3933989 19.8098655,16.929148 L9.14035874,16.929148 C10.5279529,18.3938879 12.457471,19.2226083 14.4751121,19.220408 Z" id="Path"></path>
            <polygon id="Path" points="19.8098655 16.929148 23.529148 20.6780269 23.529148 16.929148"></polygon>
            <path d="M19.8098655,16.929148 C18.4208281,18.3917583 16.4922025,19.2199209 14.4751121,19.2199209 C12.4580217,19.2199209 10.5293961,18.3917583 9.14035874,16.929148 L9.14035874,16.929148 L5.42600897,20.6780269 C7.47309417,25.420852 10.2773543,30.6914798 12.220852,34.1961883 C12.6768089,35.0164673 13.5415598,35.525156 14.4800448,35.525156 C15.4185299,35.525156 16.2832808,35.0164673 16.7392377,34.1961883 C18.6802691,30.6914798 21.4845291,25.420852 23.5340807,20.6780269 L19.8147982,16.929148 L19.8098655,16.929148 Z" id="Path" fill="#DBE23C" fill-rule="nonzero" opacity="0.6"></path>
            <path d="M34.7190583,12.7609865 L35.5206278,10.4426009 L33.4242152,10.4426009 L34.0358744,8.68654709 L36.132287,8.68654709 L37.205157,5.61838565 L39.0993274,5.61838565 L38.023991,8.68654709 L40.3769058,8.68654709 L41.4522422,5.61838565 L43.3439462,5.61838565 L42.2686099,8.68654709 L44.0419283,8.68654709 L43.4278027,10.4426009 L41.6569507,10.4426009 L40.8578475,12.7609865 L42.9542601,12.7609865 L42.3401345,14.5170404 L40.2264574,14.5170404 L39.1190583,17.7233184 L37.2248879,17.7233184 L38.3347534,14.5170404 L35.9818386,14.5170404 L34.8744395,17.7233184 L32.9802691,17.7233184 L34.0901345,14.5170404 L32.3340807,14.5170404 L32.9457399,12.7609865 L34.7190583,12.7609865 Z M36.6132287,12.7609865 L38.9686099,12.7609865 L39.7701794,10.4426009 L37.4172646,10.4426009 L36.6132287,12.7609865 Z" id="Shape" fill="#6ABD45" fill-rule="nonzero"></path>
            <path d="M51.2733184,17.3952915 C50.7082683,17.6379293 50.0974923,17.7557098 49.4827354,17.740583 C48.8522783,17.7490071 48.2247637,17.6531716 47.6255605,17.4569507 C47.0915708,17.2848486 46.6022386,16.996808 46.1926009,16.6134529 C45.7842065,16.222823 45.4696736,15.7446994 45.2726457,15.2150224 C45.0432911,14.5881821 44.9328825,13.9240574 44.9470852,13.2567265 C44.9349311,12.6041605 45.0479563,11.955312 45.2800448,11.3452915 C45.4841661,10.8218764 45.8017152,10.3501854 46.2098655,9.96412556 C46.621479,9.58699018 47.1093195,9.30269693 47.6403587,9.13049327 C48.2404098,8.93426829 48.8687357,8.83843609 49.5,8.84686099 C50.0376421,8.85349903 50.5716099,8.93654223 51.0858744,9.09349776 C51.493846,9.20177545 51.8801306,9.37948305 52.2278027,9.61883408 L52.2278027,12.12713 C51.9413037,11.6830206 51.5596813,11.3081377 51.1105381,11.0295964 C50.6217165,10.7456724 50.065261,10.5991022 49.5,10.6053812 C48.6778774,10.6053812 48.0530643,10.8199552 47.6255605,11.2491031 C47.1914798,11.6782511 46.9769058,12.3244395 46.9769058,13.1802691 L46.9769058,13.4269058 C46.9769058,14.306577 47.2013453,14.9535874 47.6502242,15.3679372 C48.0991031,15.782287 48.7272048,15.9886398 49.5345291,15.9869955 C50.1474287,16.0108079 50.7559854,15.8748176 51.3004484,15.5923767 C51.7179489,15.3721703 52.0681858,15.0432373 52.3141256,14.6403587 L52.3141256,16.694843 C52.0240491,17.0022151 51.6694237,17.2414398 51.2757848,17.3952915" id="Path" fill="#2C9942" fill-rule="nonzero"></path>
            <path d="M61.6591928,6.38542601 C61.3537839,6.51083015 61.0326381,6.59381355 60.7047085,6.63206278 C60.2393871,6.71098655 59.6540359,6.77922272 58.9486547,6.8367713 C58.3753596,6.88063704 57.810496,7.00090902 57.2690583,7.19439462 C56.8676957,7.34118003 56.5079853,7.58324395 56.220852,7.89977578 C55.9481265,8.22287521 55.7532106,8.60426898 55.6511211,9.01457399 C55.5158421,9.53610683 55.425896,10.0683568 55.382287,10.6053812 C55.714715,10.1282244 56.1549474,9.73615563 56.6672646,9.46098655 C57.2716102,9.15457622 57.9433879,9.00529229 58.6206278,9.02690583 C59.1218458,9.02417521 59.6206482,9.09650156 60.1004484,9.24147982 C60.5553573,9.37616199 60.9725522,9.61516228 61.3188341,9.93946188 C61.6911213,10.2966319 61.9763402,10.7345863 62.1524664,11.2195067 C62.3728813,11.8456248 62.4765408,12.5068723 62.458296,13.1704036 C62.458296,14.6946188 62.0801196,15.8340807 61.3237668,16.5887892 C60.5674141,17.3434978 59.5134529,17.7216741 58.1618834,17.7233184 C56.7067265,17.7233184 55.590284,17.271151 54.8125561,16.3668161 C54.0348281,15.4624813 53.645142,14.0278774 53.6434978,12.0630045 C53.6294472,11.0511704 53.7120342,10.0403059 53.8901345,9.0441704 C54.0182429,8.30197509 54.2780097,7.58866069 54.6571749,6.93789238 C54.9788162,6.40095894 55.4299369,5.95323008 55.9692825,5.63565022 C56.5594943,5.30800934 57.2034492,5.0883464 57.870852,4.98699552 C58.1988789,4.93026906 58.5491031,4.88340807 58.9190583,4.84147982 C59.2890135,4.79955157 59.6466368,4.76008969 59.9919283,4.7132287 C60.3372197,4.66636771 60.6603139,4.61950673 60.956278,4.5603139 C61.198846,4.52213352 61.4341971,4.44728685 61.6542601,4.33834081 L61.6591928,6.38542601 Z M55.6881166,13.1704036 C55.6584017,13.8751426 55.8650046,14.5696059 56.2751121,15.1434978 C56.6672646,15.6589686 57.2616592,15.9154709 58.0237668,15.9154709 C58.3420351,15.9186292 58.6586595,15.8694691 58.9609865,15.7699552 C59.2382513,15.675482 59.4910032,15.5204609 59.7008969,15.3161435 C59.9228038,15.0917664 60.0913904,14.820342 60.1941704,14.5219731 C60.3235963,14.1393737 60.3845444,13.7369495 60.3742152,13.3331839 C60.3742152,12.4436472 60.1752616,11.7966368 59.7773543,11.3921525 C59.3277884,10.9674544 58.7224607,10.7478222 58.105157,10.785426 C57.4604302,10.7486897 56.8263024,10.9615376 56.3343049,11.3798206 C55.9002242,11.7769058 55.6856502,12.3663677 55.6856502,13.1704036" id="Shape" fill="#2C9942" fill-rule="nonzero"></path>
            <path d="M71.3199552,16.6997758 C71.1943449,16.8453858 71.0450953,16.9687878 70.8784753,17.0647982 C70.6567236,17.198946 70.4220641,17.3104919 70.1780269,17.3977578 C69.8826541,17.5096612 69.5770002,17.5922704 69.2654709,17.6443946 C68.9076071,17.7033888 68.5454259,17.7322643 68.1827354,17.7307175 C66.7621076,17.740583 65.6604634,17.3681614 64.8778027,16.6134529 C64.0934978,15.8587444 63.7013453,14.7390135 63.7013453,13.2641256 C63.6900608,12.6221846 63.796215,11.9835878 64.014574,11.3798206 C64.396718,10.3302228 65.2295139,9.50738415 66.2836323,9.13789238 C66.8495165,8.9369821 67.446653,8.83843371 68.0470852,8.84686099 C69.2852018,8.8583707 70.2544843,9.22832586 70.9549327,9.95672646 C71.6553812,10.6851271 72.0047833,11.7193572 72.0031448,13.059417 L72.0031448,13.8757848 L65.6769058,13.8757848 C65.8413303,15.2980568 66.6996263,16.0091928 68.2517937,16.0091928 C68.9238131,16.0328552 69.5920122,15.8985396 70.2026906,15.6170404 C70.6577747,15.4095989 71.0450491,15.0778937 71.3199552,14.6600897 L71.3199552,16.6997758 Z M67.9952915,10.6053812 C67.4387075,10.5769271 66.8897603,10.7444912 66.4439462,11.0789238 C66.0341743,11.4333899 65.7705182,11.9273057 65.7040359,12.4650224 L70.0004484,12.4650224 C70.0093606,11.9529817 69.808931,11.4594794 69.4455157,11.0986547 C69.0452168,10.7509042 68.524606,10.5738257 67.9952915,10.6053812" id="Shape" fill="#2C9942" fill-rule="nonzero"></path>
            <path d="M73.8430493,9.0293722 L75.7174888,9.0293722 L75.7174888,10.7928251 C75.8021543,10.5435401 75.9190654,10.3064013 76.0652466,10.0874439 C76.2266915,9.84795623 76.4286721,9.63846403 76.6621076,9.46838565 C76.9298581,9.2761535 77.2261455,9.12717751 77.5401345,9.02690583 C77.9266697,8.90799432 78.329491,8.85056731 78.7338565,8.85672646 C79.2419155,8.85000787 79.7471346,8.93351516 80.226009,9.10336323 C80.6684702,9.26254487 81.0672612,9.52361777 81.3901345,9.86547085 C81.7345231,10.2428791 81.992865,10.6905596 82.1473094,11.1775785 C82.3428701,11.8004595 82.4353439,12.4511086 82.4210762,13.1038117 C82.4371254,13.8270753 82.3448478,14.5486688 82.1473094,15.2446188 C81.997605,15.77338 81.733185,16.2626413 81.37287,16.6775785 C81.04081,17.0449122 80.6218919,17.3230602 80.1544843,17.4865471 C79.6439056,17.6590579 79.1074643,17.7424858 78.5686099,17.7331839 C77.9664134,17.7532827 77.3712153,17.5991306 76.8544843,17.2892377 C76.433355,17.034433 76.0844027,16.6761413 75.8408072,16.2484305 L75.8408072,20.8358744 L73.8430493,20.8358744 L73.8430493,9.0293722 Z M75.8383408,13.5798206 C75.8383408,14.3509716 76.0430493,14.9445441 76.4524664,15.3605381 C76.8987202,15.790623 77.5032542,16.0165419 78.1221973,15.9845291 C78.9278774,15.9845291 79.5132287,15.7707773 79.8782511,15.3432735 C80.2432735,14.9157698 80.4249626,14.1947683 80.4233294,13.1802691 C80.4233294,12.2430493 80.2161435,11.5853513 79.8017937,11.2071749 C79.353375,10.7989363 78.7627225,10.5828655 78.1567265,10.6053812 C77.3724215,10.6053812 76.7969357,10.8100897 76.4302691,11.2195067 C76.0380498,11.693886 75.8296844,12.2935931 75.8432735,12.9089686 L75.8383408,13.5798206 Z" id="Shape" fill="#2C9942" fill-rule="nonzero"></path>
            <path d="M91.2556054,16.6997758 C91.1295919,16.8459478 90.9794311,16.9694134 90.8116592,17.0647982 C90.5910399,17.199441 90.3571465,17.3110156 90.1136771,17.3977578 C89.8182072,17.5093611 89.5125831,17.5919622 89.2011211,17.6443946 C88.8432573,17.7033888 88.4810761,17.7322643 88.1183857,17.7307175 C86.6977578,17.740583 85.5952915,17.3681614 84.8109865,16.6134529 C84.0266816,15.8587444 83.6345291,14.7390135 83.6345291,13.2641256 C83.6240347,12.6220324 83.7310255,11.9834311 83.9502242,11.3798206 C84.3323682,10.3302228 85.1651642,9.50738415 86.2192825,9.13789238 C86.7851667,8.9369821 87.3823032,8.83843371 87.9827354,8.84686099 C89.220852,8.8583707 90.1901345,9.22832586 90.890583,9.95672646 C91.5910314,10.6851271 91.9404335,11.7193572 91.938795,13.059417 L91.938795,13.8757848 L85.6224215,13.8757848 C85.786846,15.2980568 86.645142,16.0091928 88.1973094,16.0091928 C88.8693288,16.0328552 89.5375279,15.8985396 90.1482063,15.6170404 C90.6006225,15.4060352 90.9844226,15.0718129 91.2556054,14.6526906 L91.2556054,16.6997758 Z M87.9408072,10.6053812 C87.3842232,10.5769271 86.835276,10.7444912 86.3894619,11.0789238 C85.97969,11.4333899 85.7160339,11.9273057 85.6495516,12.4650224 L89.9459641,12.4650224 C89.9548763,11.9529817 89.7544467,11.4594794 89.3910314,11.0986547 C88.9907325,10.7509042 88.4701217,10.5738257 87.9408072,10.6053812" id="Shape" fill="#6ABD45" fill-rule="nonzero"></path>
            <polygon id="Path" fill="#6ABD45" fill-rule="nonzero" points="93.788565 9.0293722 99.9076233 9.0293722 99.9076233 10.785426 95.7838565 10.785426 95.7838565 17.553139 93.788565 17.553139"></polygon>
            <polygon id="Path" fill="#6ABD45" fill-rule="nonzero" points="101.868386 9.0293722 103.846413 9.0293722 103.846413 14.8080717 107.938117 9.0293722 109.829821 9.0293722 109.829821 17.553139 107.85426 17.553139 107.85426 11.7053812 103.762556 17.553139 101.868386 17.553139"></polygon>
            <path d="M49.4334081,17.6789238 C46.7204036,17.6789238 44.9248879,16.1991031 44.9248879,13.2246637 C44.9248879,10.309417 46.7549327,8.85179372 49.4506726,8.83699552 C50.5852018,8.85179372 51.6013453,9.19215247 52.1636771,9.61390135 L52.1636771,12.0852018 C51.5899526,11.1357535 50.5599953,10.5571048 49.4506726,10.5609865 C47.82287,10.5609865 46.9423767,11.4266816 46.9423767,13.1358744 L46.9423767,13.3825112 C46.9423767,15.1286996 47.8919283,15.9426009 49.4827354,15.9426009 C50.8910314,15.9426009 51.820852,15.3482063 52.2450673,14.6033632 L52.2450673,16.6356502 C51.8726457,17.1215247 50.8071749,17.6789238 49.4334081,17.6789238 Z" id="Path" fill="#2C9942" fill-rule="nonzero"></path>
            <path d="M61.5975336,6.39529148 C61.2596413,6.58273543 60.2928251,6.73565022 58.9042601,6.85403587 C56.1912556,7.10067265 55.5820628,8.17600897 55.3625561,10.5979821 C56.0235426,9.64843049 57.0569507,9.02197309 58.5688341,9.02197309 C60.6726457,9.02197309 62.3991031,10.0726457 62.3991031,13.1383408 C62.3991031,16.1374439 60.8058296,17.6641256 58.1298206,17.6641256 C55.2491031,17.6641256 53.638565,15.9524664 53.638565,12.0383408 C53.638565,7.35224215 54.926009,5.48026906 57.8313901,5.00672646 C59.1360987,4.78721973 60.8970852,4.71816143 61.5926009,4.36300448 L61.5975336,6.39529148 Z M57.9892377,15.8661435 C59.3284753,15.8661435 60.3273543,15.1558296 60.3273543,13.3085202 C60.3273543,11.5475336 59.4961883,10.785426 58.0730942,10.785426 C56.5932735,10.785426 55.6683857,11.5795964 55.6683857,13.1556054 C55.6683857,14.7316143 56.4477578,15.8661435 57.9892377,15.8661435 Z" id="Shape" fill="#2C9942" fill-rule="nonzero"></path>
            <path d="M68.1556054,17.6641256 C65.3587444,17.6789238 63.6988789,16.1374439 63.6988789,13.2246637 C63.6988789,10.4105381 65.4598655,8.83699552 68.0199552,8.83699552 C70.4863229,8.85179372 71.9488789,10.3612108 71.9488789,13.0298206 L71.9488789,13.843722 L65.664574,13.843722 C65.8174888,15.2495516 66.6807175,15.9623318 68.2221973,15.9623318 C69.7636771,15.9623318 70.8143498,15.3679372 71.2706278,14.6230942 L71.2706278,16.6553812 C70.8661435,17.1215247 69.6970852,17.6789238 68.1556054,17.6641256 Z M65.6892377,12.4280269 L69.9609865,12.4280269 C69.9091928,11.2762332 69.1643498,10.5634529 67.9607623,10.5634529 C66.6979821,10.5634529 65.9013453,11.2071749 65.6966368,12.4280269 L65.6892377,12.4280269 Z" id="Shape" fill="#2C9942" fill-rule="nonzero"></path>
            <path d="M73.8479821,9.02197309 L75.7174888,9.02197309 L75.7174888,10.785426 C76.0233184,9.83587444 76.9210762,8.85179372 78.7165919,8.85179372 C80.8623318,8.85179372 82.3766816,10.1121076 82.3766816,13.0717489 C82.3766816,16.4087444 80.8697309,17.6789238 78.5488789,17.6789238 C77.1923767,17.6789238 76.2600897,17.003139 75.8358744,16.1991031 L75.8358744,20.7569507 L73.8627803,20.7569507 L73.8479821,9.02197309 Z M75.8210762,13.5452915 C75.8210762,15.0695067 76.7040359,15.9352018 78.0926009,15.9352018 C79.6858744,15.9352018 80.3789238,15.1558296 80.3789238,13.1556054 C80.3789238,11.2934978 79.4811659,10.6152466 78.12713,10.6152466 C76.5683857,10.6152466 75.8556054,11.4784753 75.8210762,12.9015695 L75.8210762,13.5452915 Z" id="Shape" fill="#2C9942" fill-rule="nonzero"></path>
            <path d="M88.1134529,17.6641256 C85.3190583,17.6789238 83.6591928,16.1374439 83.6591928,13.2246637 C83.6591928,10.4105381 85.4201794,8.83699552 87.9778027,8.83699552 C90.4441704,8.85179372 91.9091928,10.3612108 91.9091928,13.0298206 L91.9091928,13.843722 L85.6224215,13.843722 C85.7753363,15.2495516 86.6410314,15.9623318 88.1825112,15.9623318 C89.723991,15.9623318 90.7746637,15.3679372 91.2309417,14.6230942 L91.2309417,16.6553812 C90.823991,17.1215247 89.6549327,17.6789238 88.1134529,17.6641256 Z M85.6470852,12.4280269 L89.9163677,12.4280269 C89.8670404,11.2762332 89.1197309,10.5634529 87.9186099,10.5634529 C86.6558296,10.5634529 85.8616592,11.2071749 85.6569507,12.4280269 L85.6470852,12.4280269 Z" id="Shape" fill="#6ABD45" fill-rule="nonzero"></path>
            <polygon id="Path" fill="#6ABD45" fill-rule="nonzero" points="93.8058296 9.02197309 99.8878924 9.02197309 99.8878924 10.7681614 95.7887892 10.7681614 95.7887892 17.4939462 93.8156951 17.4939462"></polygon>
            <polygon id="Path" fill="#6ABD45" fill-rule="nonzero" points="101.905381 9.02197309 103.878475 9.02197309 103.878475 14.7661435 107.945516 9.02197309 109.553587 9.02197309 109.553587 9.15762332 109.824888 9.15762332 109.824888 17.4939462 107.851794 17.4939462 107.851794 11.6831839 103.871076 17.3755605 103.78722 17.4939462 102.159417 17.4939462 102.159417 17.3755605 101.91278 17.3755605"></polygon>
            <path d="M49.4334081,32.3686099 C46.7204036,32.3686099 44.9248879,30.8887892 44.9248879,27.9143498 C44.9248879,24.9991031 46.7549327,23.5414798 49.4506726,23.5266816 C50.5852018,23.5414798 51.6013453,23.8818386 52.1636771,24.3035874 L52.1636771,26.7699552 C51.5899526,25.8205069 50.5599953,25.2418582 49.4506726,25.2457399 C47.82287,25.2457399 46.9423767,26.111435 46.9423767,27.8206278 L46.9423767,28.0672646 C46.9423767,29.8134529 47.8919283,30.6273543 49.4827354,30.6273543 C50.8910314,30.6273543 51.820852,30.0329596 52.2450673,29.2881166 L52.2450673,31.3204036 C51.8726457,31.8161435 50.8071749,32.3686099 49.4334081,32.3686099 Z" id="Path" fill="#6ABD45" fill-rule="nonzero"></path>
            <path d="M57.8017937,32.3538117 C55.0073991,32.3686099 53.3475336,30.82713 53.3475336,27.9143498 C53.3475336,25.1002242 55.1085202,23.5266816 57.6661435,23.5266816 C60.1325112,23.5414798 61.5975336,25.0508969 61.5975336,27.7195067 L61.5975336,28.5334081 L55.3107623,28.5334081 C55.4636771,29.9392377 56.3293722,30.6520179 57.870852,30.6520179 C59.4123318,30.6520179 60.4630045,30.0576233 60.9192825,29.3127803 L60.9192825,31.3450673 C60.5123318,31.8161435 59.3432735,32.3686099 57.8017937,32.3538117 Z M55.3452915,27.1300448 L59.614574,27.1300448 C59.5652466,25.9782511 58.8179372,25.2654709 57.6168161,25.2654709 C56.3466368,25.253139 55.55,25.896861 55.3452915,27.1300448 Z" id="Shape" fill="#6ABD45" fill-rule="nonzero"></path>
            <path d="M70.9672646,21.0849776 C70.6269058,21.2724215 69.6625561,21.4253363 68.273991,21.543722 C65.5609865,21.7903587 64.9517937,22.8656951 64.732287,25.2876682 C65.3932735,24.3381166 66.4266816,23.7116592 67.9508969,23.7116592 C70.0349776,23.7116592 71.7639013,24.7623318 71.7639013,27.8280269 C71.7639013,30.82713 70.1706278,32.3538117 67.4946188,32.3538117 C64.6139013,32.3538117 63.0033632,30.6421525 63.0033632,26.7280269 C63.0033632,22.0419283 64.2908072,20.1699552 67.1961883,19.6964126 C68.5008969,19.4769058 70.2618834,19.4078475 70.9573991,19.0526906 L70.9672646,21.0849776 Z M67.3589686,30.5558296 C68.6957399,30.5558296 69.6970852,29.8455157 69.6970852,27.9982063 C69.6970852,26.2372197 68.8659193,25.4751121 67.4428251,25.4751121 C65.9506726,25.4751121 65.0381166,26.2692825 65.0381166,27.8452915 C65.0381166,29.4213004 65.8150224,30.5558296 67.3589686,30.5558296 Z" id="Shape" fill="#6ABD45" fill-rule="nonzero"></path>
            <path d="M78.7955157,29.3867713 L76.8224215,29.3867713 L75.1107623,32.1836323 L72.9255605,32.1836323 L74.8986547,29.1154709 C73.9296359,28.755628 73.3050953,27.8098381 73.3547085,26.7773543 C73.3547085,24.6612108 74.5410314,23.7116592 77.167713,23.7116592 L80.776009,23.7116592 L80.776009,32.1836323 L78.8029148,32.1836323 L78.7955157,29.3867713 Z M75.3426009,26.7773543 C75.3598655,27.47287 75.8161435,27.8625561 76.8520179,27.8625561 L78.8004484,27.8625561 L78.8004484,25.4578475 L77.2244395,25.4578475 C75.8975336,25.4578475 75.3376682,25.7957399 75.3376682,26.7773543 L75.3426009,26.7773543 Z" id="Shape" fill="#6ABD45" fill-rule="nonzero"></path>
        </g>
    </g>
</svg>